<svg height="1214" width="720" xmlns="http://www.w3.org/2000/svg">
<rect height="1214" fill="#555" width="720"></rect>
<text fill="#7f7" font-family="Courier New" font-size="12" xml:space="preserve">
<tspan x="10" y="26">9 megabytes installed</tspan>
<tspan x="10" y="42"></tspan>
<tspan x="10" y="58">node_modules</tspan>
<tspan x="10" y="74">└─┬ parse-rss@1.0.3 </tspan>
<tspan x="10" y="90">  ├─┬ feedparser@2.2.0 </tspan>
<tspan x="10" y="106">  │ ├── addressparser@1.0.1 </tspan>
<tspan x="10" y="122">  │ ├── array-indexofobject@0.0.1 </tspan>
<tspan x="10" y="138">  │ ├── lodash.assign@4.2.0 </tspan>
<tspan x="10" y="154">  │ ├── lodash.get@4.4.2 </tspan>
<tspan x="10" y="170">  │ ├── lodash.has@4.5.2 </tspan>
<tspan x="10" y="186">  │ ├── lodash.uniq@4.5.0 </tspan>
<tspan x="10" y="202">  │ ├─┬ readable-stream@2.2.9 </tspan>
<tspan x="10" y="218">  │ │ ├── buffer-shims@1.0.0 </tspan>
<tspan x="10" y="234">  │ │ ├── core-util-is@1.0.2 </tspan>
<tspan x="10" y="250">  │ │ ├── inherits@2.0.3 </tspan>
<tspan x="10" y="266">  │ │ ├── isarray@1.0.0 </tspan>
<tspan x="10" y="282">  │ │ ├── process-nextick-args@1.0.7 </tspan>
<tspan x="10" y="298">  │ │ ├── string_decoder@1.0.0 </tspan>
<tspan x="10" y="314">  │ │ └── util-deprecate@1.0.2 </tspan>
<tspan x="10" y="330">  │ └── sax@1.2.2 </tspan>
<tspan x="10" y="346">  └─┬ request@2.81.0 </tspan>
<tspan x="10" y="362">    ├── aws-sign2@0.6.0 </tspan>
<tspan x="10" y="378">    ├── aws4@1.6.0 </tspan>
<tspan x="10" y="394">    ├── caseless@0.12.0 </tspan>
<tspan x="10" y="410">    ├─┬ combined-stream@1.0.5 </tspan>
<tspan x="10" y="426">    │ └── delayed-stream@1.0.0 </tspan>
<tspan x="10" y="442">    ├── extend@3.0.0 </tspan>
<tspan x="10" y="458">    ├── forever-agent@0.6.1 </tspan>
<tspan x="10" y="474">    ├─┬ form-data@2.1.4 </tspan>
<tspan x="10" y="490">    │ └── asynckit@0.4.0 </tspan>
<tspan x="10" y="506">    ├─┬ har-validator@4.2.1 </tspan>
<tspan x="10" y="522">    │ ├─┬ ajv@4.11.7 </tspan>
<tspan x="10" y="538">    │ │ ├── co@4.6.0 </tspan>
<tspan x="10" y="554">    │ │ └─┬ json-stable-stringify@1.0.1 </tspan>
<tspan x="10" y="570">    │ │   └── jsonify@0.0.0 </tspan>
<tspan x="10" y="586">    │ └── har-schema@1.0.5 </tspan>
<tspan x="10" y="602">    ├─┬ hawk@3.1.3 </tspan>
<tspan x="10" y="618">    │ ├── boom@2.10.1 </tspan>
<tspan x="10" y="634">    │ ├── cryptiles@2.0.5 </tspan>
<tspan x="10" y="650">    │ ├── hoek@2.16.3 </tspan>
<tspan x="10" y="666">    │ └── sntp@1.0.9 </tspan>
<tspan x="10" y="682">    ├─┬ http-signature@1.1.1 </tspan>
<tspan x="10" y="698">    │ ├── assert-plus@0.2.0 </tspan>
<tspan x="10" y="714">    │ ├─┬ jsprim@1.4.0 </tspan>
<tspan x="10" y="730">    │ │ ├── assert-plus@1.0.0 </tspan>
<tspan x="10" y="746">    │ │ ├── extsprintf@1.0.2 </tspan>
<tspan x="10" y="762">    │ │ ├── json-schema@0.2.3 </tspan>
<tspan x="10" y="778">    │ │ └── verror@1.3.6 </tspan>
<tspan x="10" y="794">    │ └─┬ sshpk@1.13.0 </tspan>
<tspan x="10" y="810">    │   ├── asn1@0.2.3 </tspan>
<tspan x="10" y="826">    │   ├── assert-plus@1.0.0 </tspan>
<tspan x="10" y="842">    │   ├── bcrypt-pbkdf@1.0.1 </tspan>
<tspan x="10" y="858">    │   ├─┬ dashdash@1.14.1 </tspan>
<tspan x="10" y="874">    │   │ └── assert-plus@1.0.0 </tspan>
<tspan x="10" y="890">    │   ├── ecc-jsbn@0.1.1 </tspan>
<tspan x="10" y="906">    │   ├─┬ getpass@0.1.6 </tspan>
<tspan x="10" y="922">    │   │ └── assert-plus@1.0.0 </tspan>
<tspan x="10" y="938">    │   ├── jodid25519@1.0.2 </tspan>
<tspan x="10" y="954">    │   ├── jsbn@0.1.1 </tspan>
<tspan x="10" y="970">    │   └── tweetnacl@0.14.5 </tspan>
<tspan x="10" y="986">    ├── is-typedarray@1.0.0 </tspan>
<tspan x="10" y="1002">    ├── isstream@0.1.2 </tspan>
<tspan x="10" y="1018">    ├── json-stringify-safe@5.0.1 </tspan>
<tspan x="10" y="1034">    ├─┬ mime-types@2.1.15 </tspan>
<tspan x="10" y="1050">    │ └── mime-db@1.27.0 </tspan>
<tspan x="10" y="1066">    ├── oauth-sign@0.8.2 </tspan>
<tspan x="10" y="1082">    ├── performance-now@0.2.0 </tspan>
<tspan x="10" y="1098">    ├── qs@6.4.0 </tspan>
<tspan x="10" y="1114">    ├── safe-buffer@5.0.1 </tspan>
<tspan x="10" y="1130">    ├── stringstream@0.0.5 </tspan>
<tspan x="10" y="1146">    ├─┬ tough-cookie@2.3.2 </tspan>
<tspan x="10" y="1162">    │ └── punycode@1.4.1 </tspan>
<tspan x="10" y="1178">    ├── tunnel-agent@0.6.0 </tspan>
<tspan x="10" y="1194">    └── uuid@3.0.1</tspan>
</text>
</svg>
